<svg width="32" height="32" viewBox="0 0 32 32" fill="none" xmlns="http://www.w3.org/2000/svg">
<g clip-path="url(#clip0_403_253)">
<path d="M5.84899 11.047C5.47299 11.495 4.87399 11.85 4.27599 11.798C4.19699 11.194 4.49499 10.547 4.83899 10.146C5.21399 9.68898 5.86999 9.36098 6.40199 9.33398C6.46499 9.96498 6.21899 10.585 5.84999 11.047H5.84899ZM6.39599 11.917C5.52699 11.864 4.78099 12.416 4.36899 12.416C3.94799 12.416 3.31699 11.943 2.62999 11.959C1.73899 11.97 0.905993 12.479 0.452993 13.298C-0.490007 14.927 0.207993 17.339 1.11399 18.667C1.55699 19.323 2.08699 20.042 2.78599 20.022C3.44699 19.995 3.71299 19.585 4.50999 19.585C5.31699 19.585 5.54599 20.022 6.24999 20.006C6.97299 19.995 7.43099 19.35 7.87399 18.694C8.37899 17.949 8.58699 17.219 8.59799 17.183C8.58699 17.167 7.19699 16.631 7.18699 15.016C7.17599 13.661 8.27999 13.016 8.32699 12.979C7.70699 12.042 6.72799 11.943 6.39499 11.918L6.39599 11.917ZM11.412 10.083V19.938H12.927V16.569H15.022C16.933 16.569 18.277 15.241 18.277 13.324C18.277 11.403 16.96 10.084 15.074 10.084L11.412 10.083ZM12.927 11.375H14.672C15.984 11.375 16.735 12.083 16.735 13.328C16.735 14.573 15.984 15.287 14.662 15.287H12.927V11.375ZM21.036 20.011C21.989 20.011 22.869 19.527 23.271 18.755H23.303V19.938H24.703V15.031C24.703 13.615 23.579 12.694 21.844 12.694C20.24 12.694 19.052 13.626 19.011 14.902H20.37C20.485 14.293 21.037 13.897 21.803 13.897C22.73 13.897 23.246 14.334 23.246 15.137V15.678L21.361 15.793C19.6 15.902 18.652 16.626 18.652 17.892C18.652 19.168 19.632 20.012 21.037 20.012L21.036 20.011ZM21.448 18.844C20.64 18.844 20.125 18.453 20.125 17.855C20.125 17.235 20.62 16.87 21.562 16.812L23.245 16.708V17.265C23.245 18.188 22.469 18.844 21.442 18.844H21.448ZM26.573 22.62C28.046 22.62 28.74 22.047 29.344 20.323L32 12.792H30.464L28.683 18.609H28.651L26.87 12.792H25.287L27.85 19.964L27.714 20.401C27.479 21.136 27.105 21.421 26.438 21.421C26.318 21.421 26.089 21.406 25.995 21.396V22.579C26.083 22.604 26.459 22.615 26.568 22.615L26.573 22.62Z" fill="#ECC0A2"/>
</g>
<defs>
<clipPath id="clip0_403_253">
<rect width="32" height="32" fill="white"/>
</clipPath>
</defs>
</svg>
