<svg width="24" height="24" viewBox="0 0 24 24" fill="none" xmlns="http://www.w3.org/2000/svg">
<path d="M20 8H17.3333V4.66667C17.3333 4.48986 17.2631 4.32029 17.1381 4.19526C17.013 4.07024 16.8435 4 16.6666 4H1.99998C1.82317 4 1.6536 4.07024 1.52858 4.19526C1.40355 4.32029 1.33331 4.48986 1.33331 4.66667V16.6667C1.33331 16.8435 1.40355 17.013 1.52858 17.1381C1.6536 17.2631 1.82317 17.3333 1.99998 17.3333H2.66665V5.33333H16V14.3267C15.5917 14.4566 15.2164 14.6735 14.8999 14.9624C14.5834 15.2512 14.3333 15.6052 14.1666 16H9.61998C9.39053 15.4527 9.00394 14.9858 8.50909 14.6583C8.01425 14.3308 7.43339 14.1574 6.83998 14.16C6.27616 14.1724 5.72801 14.3479 5.26175 14.6651C4.7955 14.9824 4.43108 15.4279 4.21254 15.9478C3.994 16.4676 3.93069 17.0397 4.03025 17.5948C4.12981 18.1499 4.38798 18.6643 4.77358 19.0758C5.15917 19.4873 5.65569 19.7784 6.20314 19.9138C6.75059 20.0493 7.32555 20.0233 7.85854 19.839C8.39154 19.6547 8.85977 19.32 9.20665 18.8754C9.55354 18.4307 9.76425 17.8952 9.81331 17.3333H14C14.0778 18.0668 14.4242 18.7455 14.9726 19.2387C15.5209 19.732 16.2324 20.0049 16.97 20.0049C17.7075 20.0049 18.419 19.732 18.9674 19.2387C19.5157 18.7455 19.8622 18.0668 19.94 17.3333H22.6666V10.6667C22.6666 9.95942 22.3857 9.28115 21.8856 8.78105C21.3855 8.28095 20.7072 8 20 8ZM6.83998 18.6667C6.62341 18.6807 6.40626 18.6502 6.20196 18.577C5.99766 18.5038 5.81055 18.3895 5.65219 18.2411C5.49384 18.0926 5.36762 17.9133 5.28133 17.7142C5.19504 17.5151 5.15052 17.3004 5.15052 17.0833C5.15052 16.8663 5.19504 16.6516 5.28133 16.4525C5.36762 16.2533 5.49384 16.074 5.65219 15.9256C5.81055 15.7772 5.99766 15.6629 6.20196 15.5897C6.40626 15.5165 6.62341 15.4859 6.83998 15.5C7.05655 15.4859 7.27369 15.5165 7.478 15.5897C7.6823 15.6629 7.86941 15.7772 8.02776 15.9256C8.18612 16.074 8.31234 16.2533 8.39863 16.4525C8.48492 16.6516 8.52944 16.8663 8.52944 17.0833C8.52944 17.3004 8.48492 17.5151 8.39863 17.7142C8.31234 17.9133 8.18612 18.0926 8.02776 18.2411C7.86941 18.3895 7.6823 18.5038 7.478 18.577C7.27369 18.6502 7.05655 18.6807 6.83998 18.6667ZM16.9533 18.6667C16.6431 18.651 16.3443 18.5446 16.094 18.3608C15.8437 18.1769 15.6528 17.9236 15.5451 17.6322C15.4374 17.3409 15.4176 17.0244 15.4881 16.7219C15.5586 16.4194 15.7163 16.1442 15.9417 15.9305C16.1671 15.7168 16.4503 15.574 16.7561 15.5198C17.062 15.4655 17.377 15.5022 17.6621 15.6253C17.9473 15.7484 18.1901 15.9525 18.3603 16.2122C18.5306 16.472 18.6209 16.7761 18.62 17.0867C18.6139 17.3003 18.5659 17.5107 18.4785 17.7057C18.3911 17.9008 18.2661 18.0767 18.1107 18.2234C17.9553 18.3702 17.7725 18.4848 17.5728 18.5609C17.3731 18.6369 17.1603 18.6729 16.9466 18.6667H16.9533ZM21.3333 11.3333H17.3333V9.33333H20C20.3536 9.33333 20.6927 9.47381 20.9428 9.72386C21.1928 9.97391 21.3333 10.313 21.3333 10.6667V11.3333Z" fill="#ECC0A2"/>
</svg>
