<svg width="32" height="32" viewBox="0 0 32 32" fill="none" xmlns="http://www.w3.org/2000/svg">
<g clip-path="url(#clip0_403_250)">
<path d="M32 13.333L27.823 22.666H26.531L28.083 19.4L25.333 13.332H26.692L28.682 17.983H28.708L30.635 13.332L32 13.333ZM14.646 16.219V20H13.333V10.667H16.807C17.6317 10.6444 18.4347 10.9324 19.057 11.474C19.672 11.979 20.01 12.693 20 13.448C20.0042 13.828 19.9215 14.2038 19.758 14.5469C19.5946 14.8899 19.3548 15.191 19.057 15.427C18.453 15.958 17.703 16.219 16.807 16.219H14.646ZM14.641 11.818V15.073H16.839C17.3175 15.0902 17.7835 14.9181 18.136 14.594C18.475 14.292 18.662 13.88 18.662 13.453C18.662 13.021 18.474 12.609 18.136 12.312C17.9634 12.1477 17.7598 12.0193 17.5372 11.9344C17.3145 11.8494 17.0772 11.8095 16.839 11.817L14.641 11.818ZM22.63 13.333C23.463 13.333 24.125 13.567 24.609 14.031C25.093 14.495 25.333 15.13 25.333 15.937V19.796H24.25V18.926H24.203C23.734 19.64 23.114 19.999 22.338 19.999C21.671 19.999 21.119 19.796 20.671 19.384C20.4549 19.1927 20.2828 18.9567 20.1668 18.6923C20.0508 18.428 19.9935 18.1416 19.999 17.853C19.999 17.207 20.233 16.692 20.707 16.306C21.176 15.926 21.806 15.733 22.592 15.733C23.264 15.733 23.816 15.863 24.248 16.118V15.847C24.2494 15.6503 24.2087 15.4555 24.1287 15.2758C24.0487 15.0961 23.9312 14.9356 23.784 14.805C23.4876 14.5276 23.096 14.3747 22.69 14.378C22.06 14.378 21.56 14.654 21.19 15.206L20.195 14.56C20.742 13.742 21.554 13.331 22.627 13.331L22.63 13.333ZM21.167 17.88C21.1648 18.0282 21.1976 18.1748 21.2627 18.3079C21.3279 18.441 21.4236 18.5569 21.542 18.646C21.792 18.849 22.105 18.959 22.422 18.953C22.896 18.953 23.354 18.755 23.693 18.406C24.052 18.073 24.256 17.604 24.256 17.114C23.902 16.822 23.412 16.676 22.782 16.676C22.318 16.676 21.938 16.791 21.631 17.02C21.324 17.254 21.167 17.536 21.167 17.879V17.88ZM5.44301 10.667C6.78941 10.6508 8.0914 11.1482 9.08401 12.058L7.53201 13.579C6.96506 13.053 6.21625 12.7673 5.44301 12.782C4.76824 12.7853 4.11126 12.9988 3.56339 13.3927C3.01553 13.7866 2.604 14.3414 2.38601 14.98C2.15696 15.6414 2.15696 16.3606 2.38601 17.022C2.604 17.6606 3.01553 18.2154 3.56339 18.6093C4.11126 19.0033 4.76824 19.2167 5.44301 19.22C6.17701 19.22 6.80801 19.038 7.29701 18.715C7.57834 18.5318 7.81944 18.2933 8.00563 18.0139C8.19181 17.7345 8.31919 17.4202 8.38001 17.09H5.44201V15.038H10.572C10.635 15.397 10.666 15.757 10.666 16.121C10.666 17.746 10.072 19.121 9.04601 20.048C8.14501 20.861 6.91101 21.334 5.44201 21.334C4.43932 21.3391 3.45464 21.0676 2.59631 20.5492C1.73798 20.0309 1.03926 19.2858 0.577009 18.396C0.196958 17.6545 -0.00125122 16.8332 -0.00125122 16C-0.00125122 15.1668 0.196958 14.3455 0.577009 13.604C1.0387 12.715 1.73647 11.9705 2.59366 11.4522C3.45085 10.9339 4.43431 10.6619 5.43601 10.666L5.44301 10.667Z" fill="#ECC0A2"/>
</g>
<defs>
<clipPath id="clip0_403_250">
<rect width="32" height="32" fill="white"/>
</clipPath>
</defs>
</svg>
