<svg width="1438" height="350" viewBox="0 0 1438 350" fill="none" xmlns="http://www.w3.org/2000/svg">
<path d="M-1.99997 0.000118252L-2 344.4C5.44592 344.4 5.49658 350 12.993 350C20.4895 350 20.4895 344.4 27.986 344.4C35.4824 344.4 35.4824 350 42.9789 350C50.4753 350 50.4755 344.4 57.9821 344.4C65.4886 344.4 65.4785 350 72.975 350C80.4714 350 80.4714 344.4 87.9679 344.4C95.4644 344.4 95.4644 350 102.961 350C110.457 350 110.457 344.4 117.954 344.4C125.45 344.4 125.45 350 132.947 350C140.443 350 140.443 344.4 147.95 344.4C155.456 344.4 155.446 350 162.943 350C170.439 350 170.439 344.4 177.936 344.4C185.432 344.4 185.432 350 192.929 350C200.425 350 200.425 344.4 207.922 344.4C215.418 344.4 215.418 350 222.925 350C230.431 350 230.421 344.4 237.918 344.4C245.414 344.4 245.414 350 252.911 350C260.407 350 260.407 344.4 267.903 344.4C275.4 344.4 275.4 350 282.896 350C290.393 350 290.393 344.4 297.9 344.4C305.406 344.4 305.396 350 312.892 350C320.389 350 320.389 344.4 327.885 344.4C335.382 344.4 335.382 350 342.878 350C350.375 350 350.375 344.4 357.881 344.4C365.388 344.4 365.378 350 372.874 350C380.371 350 380.371 344.4 387.867 344.4C395.364 344.4 395.364 350 402.86 350C410.357 350 410.357 344.4 417.863 344.4C425.37 344.4 425.36 350 432.856 350C440.353 350 440.353 344.4 447.849 344.4C455.346 344.4 455.346 350 462.842 350C470.339 350 470.339 344.4 477.845 344.4C485.352 344.4 485.342 350 492.838 350C500.335 350 500.335 344.4 507.831 344.4C515.328 344.4 515.328 350 522.834 350C530.341 350 530.331 344.4 537.827 344.4C545.323 344.4 545.323 350 552.82 350C560.316 350 560.316 344.4 567.823 344.4C575.33 344.4 575.32 350 582.826 350C590.333 350 590.323 344.4 597.819 344.4C605.315 344.4 605.315 350 612.822 350C620.329 350 620.319 344.4 627.825 344.4C635.332 344.4 635.322 350 642.818 350C650.315 350 650.315 344.4 657.821 344.4C665.328 344.4 665.318 350 672.814 350C680.311 350 680.311 344.4 687.817 344.4C695.324 344.4 695.314 350 702.82 350C710.327 350 710.317 344.4 717.813 344.4C725.31 344.4 725.31 350 732.816 350C740.323 350 740.313 344.4 747.809 344.4C755.306 344.4 755.306 350 762.812 350C770.319 350 770.309 344.4 777.815 344.4C785.322 344.4 785.312 350 792.818 350C800.325 350 800.315 344.4 807.821 344.4C815.328 344.4 815.318 350 822.824 350C830.331 350 830.321 344.4 837.817 344.4C845.314 344.4 845.314 350 852.81 350C860.307 350 860.307 344.4 867.803 344.4C875.3 344.4 875.3 350 882.796 350C890.293 350 890.293 344.4 897.789 344.4C905.286 344.4 905.286 350 912.782 350C920.279 350 920.279 344.4 927.785 344.4C935.292 344.4 935.282 350 942.778 350C950.275 350 950.275 344.4 957.781 344.4C965.288 344.4 965.278 350 972.774 350C980.271 350 980.271 344.4 987.767 344.4C995.263 344.4 995.263 350 1002.77 350C1010.28 350 1010.27 344.4 1017.76 344.4C1025.26 344.4 1025.26 350 1032.77 350C1040.27 350 1040.26 344.4 1047.76 344.4C1055.26 344.4 1055.26 350 1062.76 350C1070.27 350 1070.26 344.4 1077.76 344.4C1085.25 344.4 1085.25 350 1092.76 350C1100.26 350 1100.25 344.4 1107.76 344.4C1115.27 344.4 1115.26 350 1122.76 350C1130.27 350 1130.26 344.4 1137.77 344.4C1145.27 344.4 1145.26 350 1152.77 350C1160.28 350 1160.27 344.4 1167.77 344.4C1175.28 344.4 1175.27 350 1182.78 350C1190.28 350 1190.27 344.4 1197.78 344.4C1205.29 344.4 1205.28 350 1212.78 350C1220.29 350 1220.28 344.4 1227.79 344.4C1235.29 344.4 1235.29 350 1242.79 350C1250.29 350 1250.29 344.4 1257.79 344.4C1265.3 344.4 1265.29 350 1272.79 350C1280.3 350 1280.29 344.4 1287.8 344.4C1295.3 344.4 1295.29 350 1302.8 350C1310.31 350 1310.3 344.4 1317.8 344.4C1325.31 344.4 1325.31 350 1332.81 350C1340.3 350 1340.3 344.4 1347.81 344.4C1355.32 344.4 1355.31 350 1362.81 350C1370.32 350 1370.32 344.4 1377.82 344.4C1385.31 344.4 1385.62 349.99 1393.11 349.99C1400.61 349.99 1400.61 344.39 1408.12 344.39C1415.62 344.39 1415.63 349.99 1423.13 349.99C1430.62 349.99 1430.64 344.47 1438 344.4L1438 0.00012207L-1.99997 0.000118252Z" fill="#D0F1CD"/>
</svg>
