
<svg width="1440" height="350" viewBox="0 0 1440 350" fill="none" xmlns="http://www.w3.org/2000/svg">
<path d="M3.05989e-05 -3.81844e-06L8.74252e-10 350C7.26001 349.92 7.31995 344.41 14.6899 344.41C22.0599 344.41 22.11 350.01 29.53 350.01C36.9501 350.01 36.95 344.41 44.37 344.41C51.79 344.41 51.7899 350.01 59.21 350.01C66.63 350.01 66.63 344.41 74.0601 344.41C81.4901 344.41 81.48 350.01 88.9 350.01C96.3201 350.01 96.3199 344.41 103.74 344.41C111.16 344.41 111.16 350.01 118.58 350.01C126 350.01 126 344.41 133.42 344.41C140.84 344.41 140.84 350.01 148.26 350.01C155.68 350.01 155.68 344.41 163.11 344.41C170.54 344.41 170.53 350.01 177.95 350.01C185.37 350.01 185.37 344.41 192.79 344.41C200.21 344.41 200.21 350.01 207.63 350.01C215.05 350.01 215.05 344.41 222.47 344.41C229.89 344.41 229.89 350.01 237.32 350.01C244.75 350.01 244.74 344.41 252.16 344.41C259.58 344.41 259.58 350.01 267 350.01C274.42 350.01 274.42 344.41 281.84 344.41C289.26 344.41 289.26 350.01 296.68 350.01C304.1 350.01 304.1 344.41 311.53 344.41C318.96 344.41 318.95 350.01 326.37 350.01C333.79 350.01 333.79 344.41 341.21 344.41C348.63 344.41 348.63 350.01 356.05 350.01C363.47 350.01 363.47 344.41 370.9 344.41C378.33 344.41 378.32 350.01 385.74 350.01C393.16 350.01 393.16 344.41 400.58 344.41C408 344.41 408 350.01 415.42 350.01C422.84 350.01 422.84 344.41 430.27 344.41C437.7 344.41 437.69 350.01 445.11 350.01C452.53 350.01 452.53 344.41 459.95 344.41C467.37 344.41 467.37 350.01 474.79 350.01C482.21 350.01 482.21 344.41 489.64 344.41C497.07 344.41 497.06 350.01 504.48 350.01C511.9 350.01 511.9 344.41 519.32 344.41C526.74 344.41 526.74 350.01 534.17 350.01C541.6 350.01 541.59 344.41 549.01 344.41C556.43 344.41 556.43 350.01 563.85 350.01C571.27 350.01 571.27 344.41 578.7 344.41C586.13 344.41 586.12 350.01 593.55 350.01C600.98 350.01 600.97 344.41 608.39 344.41C615.81 344.41 615.81 350.01 623.24 350.01C630.67 350.01 630.66 344.41 638.09 344.41C645.52 344.41 645.51 350.01 652.93 350.01C660.35 350.01 660.35 344.41 667.78 344.41C675.21 344.41 675.2 350.01 682.62 350.01C690.04 350.01 690.04 344.41 697.47 344.41C704.9 344.41 704.89 350.01 712.32 350.01C719.75 350.01 719.74 344.41 727.16 344.41C734.58 344.41 734.58 350.01 742.01 350.01C749.44 350.01 749.43 344.41 756.85 344.41C764.27 344.41 764.27 350.01 771.7 350.01C779.13 350.01 779.12 344.41 786.55 344.41C793.98 344.41 793.97 350.01 801.4 350.01C808.83 350.01 808.82 344.41 816.25 344.41C823.68 344.41 823.67 350.01 831.1 350.01C838.53 350.01 838.52 344.41 845.94 344.41C853.36 344.41 853.36 350.01 860.78 350.01C868.2 350.01 868.2 344.41 875.62 344.41C883.04 344.41 883.04 350.01 890.46 350.01C897.88 350.01 897.88 344.41 905.3 344.41C912.72 344.41 912.72 350.01 920.14 350.01C927.56 350.01 927.56 344.41 934.99 344.41C942.42 344.41 942.41 350.01 949.83 350.01C957.25 350.01 957.25 344.41 964.68 344.41C972.11 344.41 972.1 350.01 979.52 350.01C986.94 350.01 986.94 344.41 994.36 344.41C1001.78 344.41 1001.78 350.01 1009.21 350.01C1016.64 350.01 1016.63 344.41 1024.05 344.41C1031.47 344.41 1031.47 350.01 1038.9 350.01C1046.33 350.01 1046.32 344.41 1053.74 344.41C1061.16 344.41 1061.16 350.01 1068.59 350.01C1076.02 350.01 1076.01 344.41 1083.43 344.41C1090.85 344.41 1090.85 350.01 1098.28 350.01C1105.71 350.01 1105.7 344.41 1113.13 344.41C1120.56 344.41 1120.55 350.01 1127.98 350.01C1135.41 350.01 1135.4 344.41 1142.83 344.41C1150.26 344.41 1150.25 350.01 1157.68 350.01C1165.11 350.01 1165.1 344.41 1172.53 344.41C1179.96 344.41 1179.95 350.01 1187.38 350.01C1194.81 350.01 1194.8 344.41 1202.23 344.41C1209.66 344.41 1209.65 350.01 1217.08 350.01C1224.51 350.01 1224.5 344.41 1231.93 344.41C1239.36 344.41 1239.36 350.01 1246.78 350.01C1254.2 350.01 1254.2 344.41 1261.63 344.41C1269.06 344.41 1269.05 350.01 1276.48 350.01C1283.91 350.01 1283.9 344.41 1291.33 344.41C1298.76 344.41 1298.75 350.01 1306.18 350.01C1313.61 350.01 1313.6 344.41 1321.03 344.41C1328.46 344.41 1328.46 350.01 1335.88 350.01C1343.3 350.01 1343.3 344.41 1350.73 344.41C1358.16 344.41 1358.15 350.01 1365.58 350.01C1373.01 350.01 1373.01 344.41 1380.43 344.41C1387.85 344.41 1388.15 350 1395.57 350C1402.99 350 1402.99 344.4 1410.42 344.4C1417.85 344.4 1417.86 350 1425.28 350C1432.7 350 1432.72 344.48 1440 344.41L1440 0.00012207L3.05989e-05 -3.81844e-06Z" fill="#D0F1CD"/>
</svg>
