<svg width="1440" height="300" viewBox="0 0 1440 300" fill="none" xmlns="http://www.w3.org/2000/svg">
<path d="M1440 300V2.65064e-05C1432.74 0.0685979 1432.68 4.79146 1425.31 4.79146C1417.94 4.79146 1417.89 -0.00854492 1410.47 -0.00854492C1403.05 -0.00854492 1403.05 4.79146 1395.63 4.79146C1388.21 4.79146 1388.21 -0.00854492 1380.79 -0.00854492C1373.37 -0.00854492 1373.37 4.79146 1365.94 4.79146C1358.51 4.79146 1358.52 -0.00854492 1351.1 -0.00854492C1343.68 -0.00854492 1343.68 4.79146 1336.26 4.79146C1328.84 4.79146 1328.84 -0.00854492 1321.42 -0.00854492C1314 -0.00854492 1314 4.79146 1306.58 4.79146C1299.16 4.79146 1299.16 -0.00854492 1291.74 -0.00854492C1284.32 -0.00854492 1284.32 4.79146 1276.89 4.79146C1269.46 4.79146 1269.47 -0.00854492 1262.05 -0.00854492C1254.63 -0.00854492 1254.63 4.79146 1247.21 4.79146C1239.79 4.79146 1239.79 -0.00854492 1232.37 -0.00854492C1224.95 -0.00854492 1224.95 4.79146 1217.53 4.79146C1210.11 4.79146 1210.11 -0.00854492 1202.68 -0.00854492C1195.25 -0.00854492 1195.26 4.79146 1187.84 4.79146C1180.42 4.79146 1180.42 -0.00854492 1173 -0.00854492C1165.58 -0.00854492 1165.58 4.79146 1158.16 4.79146C1150.74 4.79146 1150.74 -0.00854492 1143.32 -0.00854492C1135.9 -0.00854492 1135.9 4.79146 1128.47 4.79146C1121.04 4.79146 1121.05 -0.00854492 1113.63 -0.00854492C1106.21 -0.00854492 1106.21 4.79146 1098.79 4.79146C1091.37 4.79146 1091.37 -0.00854492 1083.95 -0.00854492C1076.53 -0.00854492 1076.53 4.79146 1069.1 4.79146C1061.67 4.79146 1061.68 -0.00854492 1054.26 -0.00854492C1046.84 -0.00854492 1046.84 4.79146 1039.42 4.79146C1032 4.79146 1032 -0.00854492 1024.58 -0.00854492C1017.16 -0.00854492 1017.16 4.79146 1009.73 4.79146C1002.3 4.79146 1002.31 -0.00854492 994.89 -0.00854492C987.47 -0.00854492 987.47 4.79146 980.05 4.79146C972.63 4.79146 972.63 -0.00854492 965.21 -0.00854492C957.79 -0.00854492 957.79 4.79146 950.36 4.79146C942.93 4.79146 942.94 -0.00854492 935.52 -0.00854492C928.1 -0.00854492 928.1 4.79146 920.68 4.79146C913.26 4.79146 913.26 -0.00854492 905.83 -0.00854492C898.4 -0.00854492 898.41 4.79146 890.99 4.79146C883.57 4.79146 883.57 -0.00854492 876.15 -0.00854492C868.73 -0.00854492 868.73 4.79146 861.3 4.79146C853.87 4.79146 853.88 -0.00854492 846.45 -0.00854492C839.02 -0.00854492 839.03 4.79146 831.61 4.79146C824.19 4.79146 824.19 -0.00854492 816.76 -0.00854492C809.33 -0.00854492 809.34 4.79146 801.91 4.79146C794.48 4.79146 794.49 -0.00854492 787.07 -0.00854492C779.65 -0.00854492 779.65 4.79146 772.22 4.79146C764.79 4.79146 764.8 -0.00854492 757.38 -0.00854492C749.96 -0.00854492 749.96 4.79146 742.53 4.79146C735.1 4.79146 735.11 -0.00854492 727.68 -0.00854492C720.25 -0.00854492 720.26 4.79146 712.84 4.79146C705.42 4.79146 705.42 -0.00854492 697.99 -0.00854492C690.56 -0.00854492 690.57 4.79146 683.15 4.79146C675.73 4.79146 675.73 -0.00854492 668.3 -0.00854492C660.87 -0.00854492 660.88 4.79146 653.45 4.79146C646.02 4.79146 646.03 -0.00854492 638.6 -0.00854492C631.17 -0.00854492 631.18 4.79146 623.75 4.79146C616.32 4.79146 616.33 -0.00854492 608.9 -0.00854492C601.47 -0.00854492 601.48 4.79146 594.06 4.79146C586.64 4.79146 586.64 -0.00854492 579.22 -0.00854492C571.8 -0.00854492 571.8 4.79146 564.38 4.79146C556.96 4.79146 556.96 -0.00854492 549.54 -0.00854492C542.12 -0.00854492 542.12 4.79146 534.7 4.79146C527.28 4.79146 527.28 -0.00854492 519.86 -0.00854492C512.44 -0.00854492 512.44 4.79146 505.01 4.79146C497.58 4.79146 497.59 -0.00854492 490.17 -0.00854492C482.75 -0.00854492 482.75 4.79146 475.32 4.79146C467.89 4.79146 467.9 -0.00854492 460.48 -0.00854492C453.06 -0.00854492 453.06 4.79146 445.64 4.79146C438.22 4.79146 438.22 -0.00854492 430.79 -0.00854492C423.36 -0.00854492 423.37 4.79146 415.95 4.79146C408.53 4.79146 408.53 -0.00854492 401.1 -0.00854492C393.67 -0.00854492 393.68 4.79146 386.26 4.79146C378.84 4.79146 378.84 -0.00854492 371.41 -0.00854492C363.98 -0.00854492 363.99 4.79146 356.57 4.79146C349.15 4.79146 349.15 -0.00854492 341.72 -0.00854492C334.29 -0.00854492 334.3 4.79146 326.87 4.79146C319.44 4.79146 319.45 -0.00854492 312.02 -0.00854492C304.59 -0.00854492 304.6 4.79146 297.17 4.79146C289.74 4.79146 289.75 -0.00854492 282.32 -0.00854492C274.89 -0.00854492 274.9 4.79146 267.47 4.79146C260.04 4.79146 260.05 -0.00854492 252.62 -0.00854492C245.19 -0.00854492 245.2 4.79146 237.77 4.79146C230.34 4.79146 230.35 -0.00854492 222.92 -0.00854492C215.49 -0.00854492 215.5 4.79146 208.07 4.79146C200.64 4.79146 200.64 -0.00854492 193.22 -0.00854492C185.8 -0.00854492 185.8 4.79146 178.37 4.79146C170.94 4.79146 170.95 -0.00854492 163.52 -0.00854492C156.09 -0.00854492 156.1 4.79146 148.67 4.79146C141.24 4.79146 141.25 -0.00854492 133.82 -0.00854492C126.39 -0.00854492 126.4 4.79146 118.97 4.79146C111.54 4.79146 111.54 -0.00854492 104.12 -0.00854492C96.7 -0.00854492 96.7 4.79146 89.27 4.79146C81.84 4.79146 81.85 -0.00854492 74.42 -0.00854492C66.99 -0.00854492 66.99 4.79146 59.57 4.79146C52.15 4.79146 51.85 2.65064e-05 44.43 2.65064e-05C37.01 2.65064e-05 37.01 4.80003 29.58 4.80003C22.15 4.80003 22.14 2.65064e-05 14.72 2.65064e-05C7.3 2.65064e-05 7.28 4.73146 0 4.79146V300H1440Z" fill="#5F5F5F"/>
</svg>
