<svg width="414" height="1034" viewBox="0 0 414 1034" fill="none" xmlns="http://www.w3.org/2000/svg">
<rect y="6" width="414" height="1028" fill="#5F5F5F"/>
<path d="M0 3C2.96 3 2.96 6 5.91 6C8.86 6 8.87 3 11.82 3C14.77 3 14.78 6 17.73 6C20.68 6 20.69 3 23.64 3C26.59 3 26.6 6 29.55 6C32.5 6 32.51 3 35.46 3C38.41 3 38.42 6 41.37 6C44.32 6 44.33 3 47.28 3C50.23 3 50.24 6 53.19 6C56.14 6 56.15 3 59.1 3C62.05 3 62.06 6 65.01 6C67.96 6 67.97 3 70.92 3C73.87 3 73.88 6 76.83 6C79.78 6 79.79 3 82.74 3C85.69 3 85.7 6 88.65 6C91.6 6 91.61 3 94.56 3C97.51 3 97.52 6 100.47 6C103.42 6 103.43 3 106.38 3C109.33 3 109.34 6 112.29 6C115.24 6 115.25 3 118.2 3C121.15 3 121.16 6 124.11 6C127.06 6 127.07 3 130.02 3C132.97 3 132.98 6 135.93 6C138.88 6 138.89 3 141.84 3C144.79 3 144.8 6 147.75 6C150.7 6 150.71 3 153.66 3C156.61 3 156.62 6 159.58 6C162.54 6 162.54 3 165.49 3C168.44 3 168.45 6 171.4 6C174.35 6 174.36 3 177.31 3C180.26 3 180.27 6 183.22 6C186.17 6 186.18 3 189.13 3C192.08 3 192.09 6 195.04 6C197.99 6 198 3 200.95 3C203.9 3 203.91 6 206.86 6C209.81 6 209.82 3 212.77 3C215.72 3 215.73 6 218.68 6C221.63 6 221.63 3 224.59 3C227.55 3 227.54 6 230.5 6C233.46 6 233.46 3 236.41 3C239.36 3 239.37 6 242.33 6C245.29 6 245.29 3 248.24 3C251.19 3 251.2 6 254.15 6C257.1 6 257.11 3 260.06 3C263.01 3 263.02 6 265.98 6C268.94 6 268.94 3 271.89 3C274.84 3 274.85 6 277.8 6C280.75 6 280.76 3 283.72 3C286.68 3 286.68 6 289.63 6C292.58 6 292.59 3 295.55 3C298.51 3 298.51 6 301.46 6C304.41 6 304.42 3 307.38 3C310.34 3 310.34 6 313.3 6C316.26 6 316.26 3 319.22 3C322.18 3 322.18 6 325.14 6C328.1 6 328.1 3 331.06 3C334.02 3 334.02 6 336.98 6C339.94 6 339.94 3 342.9 3C345.86 3 345.86 6 348.82 6C351.78 6 351.78 3 354.74 3C357.7 3 357.7 6 360.65 6C363.6 6 363.61 3 366.57 3C369.53 3 369.53 6 372.49 6C375.45 6 375.45 3 378.41 3C381.37 3 381.37 6 384.33 6C387.29 6 387.29 3 390.25 3C393.21 3 393.21 6 396.17 6C399.13 6 399.13 3 402.09 3C405.05 3 405.05 6 408.02 6C410.99 6 410.98 3 413.95 3" stroke="#5F5F5F" stroke-width="6" stroke-miterlimit="10"/>
</svg>
