<svg width="89" height="34" viewBox="0 0 89 34" fill="none" xmlns="http://www.w3.org/2000/svg">
<path fill-rule="evenodd" clip-rule="evenodd" d="M37.2764 17.1855C39.2081 17.1855 40.9894 18.2106 40.7458 20.7666C40.4568 23.7973 38.7875 25.4847 36.1641 25.4916H33.8744C33.5438 25.4916 33.3856 25.7538 33.2987 26.2943L32.8569 29.0543C32.7903 29.4706 32.5725 29.6761 32.249 29.6761H30.1175C29.7768 29.6761 29.6585 29.4637 29.7345 28.9861L31.497 17.9315C31.5832 17.3879 31.7962 17.1855 32.1722 17.1855H37.2764ZM33.8031 23.1034H35.5398C36.6255 23.0636 37.3477 22.3276 37.4198 20.9997C37.4652 20.1794 36.8989 19.5929 35.998 19.5967L34.3632 19.6044L33.8031 23.1034ZM46.5417 28.8266C46.736 28.6533 46.9334 28.5629 46.9059 28.7768L46.837 29.2889C46.801 29.5557 46.9099 29.6991 47.1644 29.6991H49.0585C49.3766 29.6991 49.5325 29.5726 49.6108 29.0896L50.7787 21.9197C50.8367 21.5594 50.7482 21.383 50.4654 21.383H48.3857C48.1977 21.383 48.1068 21.4865 48.0582 21.7664L47.9799 22.208C47.9399 22.438 47.8318 22.4778 47.7316 22.2463C47.3783 21.4267 46.4782 21.0603 45.2132 21.0856C42.2913 21.1438 40.3212 23.315 40.1113 26.0973C39.9484 28.2501 41.5213 29.9398 43.6011 29.9398C45.1074 29.9398 45.7819 29.5005 46.5409 28.8266H46.5417ZM44.9562 27.7249C43.7029 27.7249 42.8224 26.7428 43.0057 25.5391C43.189 24.3355 44.3632 23.3541 45.6213 23.3541C46.8793 23.3541 47.7551 24.3362 47.5718 25.5391C47.3885 26.742 46.2166 27.7257 44.9562 27.7257V27.7249ZM54.4878 21.3616H52.5741C52.1778 21.3616 52.0164 21.646 52.1425 22.0071L54.527 28.8419L52.177 32.0926C51.9812 32.364 52.1323 32.6124 52.412 32.6124H54.5716C54.8936 32.6124 55.051 32.5319 55.2132 32.3057L62.5444 22.0033C62.77 21.6859 62.6635 21.3539 62.293 21.3539H60.2516C59.9014 21.3539 59.7604 21.4888 59.5599 21.7748L56.5002 26.1187L55.1396 21.7671C55.0557 21.4988 54.8552 21.36 54.4878 21.36V21.3616Z" fill="#ECC0A2"/>
<path fill-rule="evenodd" clip-rule="evenodd" d="M70.1772 17.1855C72.1089 17.1855 73.891 18.2106 73.6466 20.7666C73.3576 23.7973 71.6883 25.4847 69.0649 25.4916H66.7752C66.4454 25.4916 66.2864 25.7538 66.2002 26.2943L65.7584 29.0543C65.6919 29.4706 65.4733 29.6761 65.1506 29.6761H63.0183C62.6784 29.6761 62.5593 29.4637 62.6353 28.9861L64.3978 17.9315C64.4847 17.3879 64.697 17.1855 65.0738 17.1855H70.1772ZM66.7039 23.1034H68.4406C69.5263 23.0636 70.2485 22.3276 70.3206 20.9997C70.3652 20.1794 69.7997 19.5929 68.8988 19.5967L67.2632 19.6044L66.7031 23.1034H66.7039ZM79.4425 28.8266C79.6375 28.6533 79.8342 28.5629 79.8075 28.7768L79.7378 29.2889C79.7018 29.5557 79.8107 29.6991 80.0652 29.6991H81.9593C82.2782 29.6991 82.4293 29.5726 82.5124 29.0896L83.6795 21.9197C83.7383 21.5594 83.649 21.383 83.3662 21.383H81.2841C81.0961 21.383 81.0052 21.4865 80.9559 21.7664L80.8776 22.208C80.8376 22.438 80.7295 22.4778 80.63 22.2463C80.276 21.4267 79.3767 21.0603 78.1108 21.0856C75.189 21.1438 73.2197 23.315 73.009 26.0973C72.846 28.2501 74.419 29.9398 76.4987 29.9398C78.0059 29.9398 78.6795 29.5005 79.4386 28.8266H79.4425ZM77.8578 27.7249C76.5998 27.7249 75.7232 26.7428 75.9065 25.5391C76.0898 24.3355 77.264 23.3541 78.5221 23.3541C79.7801 23.3541 80.6559 24.3362 80.4734 25.5391C80.2908 26.742 79.1151 27.7249 77.8578 27.7249ZM86.5943 29.7113H84.408C84.3693 29.7133 84.3306 29.7067 84.2948 29.692C84.259 29.6773 84.2271 29.6549 84.2014 29.6265C84.1756 29.598 84.1568 29.5643 84.1462 29.5278C84.1356 29.4912 84.1335 29.4528 84.1401 29.4154L86.0632 17.506C86.0801 17.4234 86.1253 17.349 86.1915 17.2951C86.2576 17.2413 86.3407 17.2113 86.4267 17.2101H88.613C88.6517 17.2081 88.6904 17.2148 88.7262 17.2295C88.762 17.2442 88.7939 17.2665 88.8197 17.295C88.8454 17.3234 88.8643 17.3571 88.8749 17.3937C88.8855 17.4302 88.8875 17.4686 88.8809 17.506L86.9578 29.4162C86.941 29.4988 86.8957 29.5732 86.8295 29.6271C86.7634 29.6809 86.6804 29.7109 86.5943 29.7121V29.7113Z" fill="#ECC0A2"/>
<path d="M21.1226 18.4767C20.5366 22.2786 18.0284 24.3923 14.7337 24.3923H11.9066C11.4523 24.3923 11.1429 24.6714 10.9956 25.4135L10.4011 29.0973L10.1833 30.4582L10.1786 30.4804L9.86527 32.4377C9.77675 32.9851 9.8966 33.2381 10.2342 33.2381H13.8242C14.0459 33.2189 14.194 33.0572 14.2363 32.7781L14.8919 28.5438C15.0047 27.8147 15.2836 27.5471 15.6988 27.5471H17.227C20.2538 27.5471 22.5357 25.5047 22.8302 21.8109C22.9516 20.2761 22.444 19.077 21.1226 18.4767Z" fill="#ECC0A2"/>
<path d="M10.3454 24.9343C10.3525 24.8875 10.3611 24.8423 10.3697 24.7986L10.4277 24.4375L11.4288 18.2382C11.5071 17.7621 11.7484 17.5045 12.2121 17.447C12.2826 17.4389 12.3534 17.4348 12.4244 17.4348H18.1498C18.2587 17.4348 18.3644 17.4348 18.4678 17.4409L18.5649 17.4455C18.6362 17.4493 18.7067 17.4532 18.7757 17.4585L18.8798 17.4677C18.9472 17.4739 19.013 17.4808 19.078 17.4884L19.1697 17.4992C19.248 17.5107 19.331 17.5229 19.4094 17.5367L19.4407 17.5413C19.5316 17.5582 19.6193 17.5766 19.7055 17.5965L19.7533 17.6088C19.8222 17.6257 19.8896 17.6433 19.9554 17.6625L20.0141 17.6801C20.0783 17.7 20.1418 17.7215 20.2037 17.7437L20.2452 17.7583C20.3314 17.7905 20.4152 17.8242 20.4959 17.8603C20.5335 17.6126 20.564 17.3573 20.5859 17.0936C20.6893 15.8309 20.2405 14.6541 19.3851 13.9158C18.1043 12.8102 16.1899 12.7596 14.5762 12.7596H8.84534C8.14034 12.7596 7.79176 13.0602 7.68993 13.6911L5.14801 29.4454C5.04539 30.0802 5.18483 30.3738 5.57649 30.3738H9.10619C9.35764 30.3516 9.49786 30.1714 9.55191 29.867L9.77516 28.4824L10.3454 24.9343Z" fill="#ECC0A2"/>
<path d="M19.1697 17.5007C19.248 17.5122 19.331 17.5245 19.4094 17.5383C19.331 17.5245 19.2511 17.5122 19.1697 17.5007Z" fill="#ECC0A2"/>
<path d="M18.8784 17.4692C18.9458 17.4754 19.0116 17.4823 19.0766 17.4899C19.0132 17.48 18.9474 17.4754 18.8784 17.4692Z" fill="#ECC0A2"/>
<path d="M19.4409 17.5428C19.5318 17.5597 19.6195 17.5781 19.7057 17.598C19.6195 17.5781 19.5318 17.5566 19.4409 17.5428Z" fill="#ECC0A2"/>
<path d="M19.7534 17.6104C19.8224 17.6272 19.8897 17.6449 19.9555 17.664C19.8897 17.6449 19.8224 17.6272 19.7534 17.6104Z" fill="#ECC0A2"/>
<path d="M18.5649 17.447C18.6362 17.4509 18.7067 17.4547 18.7757 17.4601C18.7067 17.4547 18.6362 17.4509 18.5649 17.447Z" fill="#ECC0A2"/>
<path d="M18.1499 17.4363C18.2588 17.4363 18.3645 17.4363 18.4679 17.4424C18.3645 17.4386 18.2588 17.4363 18.1499 17.4363Z" fill="#ECC0A2"/>
<path d="M20.4631 17.8479C19.8881 21.6598 17.3689 23.7773 14.0703 23.7773H14.1071C17.4018 23.7773 19.9101 21.6636 20.496 17.8617C20.4177 17.8257 20.3315 17.792 20.2453 17.7598C20.3197 17.7866 20.3926 17.8173 20.4631 17.8479Z" fill="#ECC0A2"/>
<path d="M9.77525 28.4824L9.552 29.867L9.5567 29.8448L9.77525 28.4824Z" fill="#ECC0A2"/>
<path d="M10.4276 24.4374L10.3696 24.7985C10.5169 24.0564 10.8263 23.7773 11.2806 23.7773H11.2438C10.8725 23.7773 10.5952 23.9629 10.4276 24.4374Z" fill="#ECC0A2"/>
<path d="M20.0142 17.6816C20.0784 17.7016 20.1418 17.723 20.2037 17.7453C20.1418 17.723 20.0784 17.7016 20.0142 17.6816Z" fill="#ECC0A2"/>
<path d="M18.4678 17.4424L18.5649 17.447L18.4678 17.4424Z" fill="#ECC0A2"/>
<path d="M18.7759 17.4601L18.8801 17.4693L18.7759 17.4601Z" fill="#ECC0A2"/>
<path d="M12.2122 17.4485C12.2826 17.4404 12.3535 17.4363 12.4244 17.4363C12.3535 17.4363 12.2826 17.4404 12.2122 17.4485Z" fill="#ECC0A2"/>
<path d="M12.2122 17.4485C11.7477 17.506 11.5072 17.7636 11.4288 18.2397L10.4277 24.439L11.4281 18.2412C11.5048 17.7636 11.75 17.506 12.2122 17.4485Z" fill="#ECC0A2"/>
<path d="M20.2036 17.7452L20.2447 17.7598L20.2036 17.7452Z" fill="#ECC0A2"/>
<path d="M19.7056 17.5981L19.7539 17.6104L19.7056 17.5981Z" fill="#ECC0A2"/>
<path d="M19.4094 17.5383L19.4401 17.5429L19.4094 17.5383Z" fill="#ECC0A2"/>
<path d="M19.0781 17.49L19.1709 17.5007L19.0781 17.49Z" fill="#ECC0A2"/>
<path d="M19.9556 17.6641L20.015 17.6817L19.9556 17.6641Z" fill="#ECC0A2"/>
<path d="M20.463 17.848C20.3925 17.8173 20.3196 17.7874 20.2452 17.7598L20.2037 17.7452C20.1418 17.723 20.0784 17.7015 20.0141 17.6816L19.9554 17.664C19.8896 17.6448 19.8222 17.6272 19.7533 17.6103L19.7055 17.598C19.6193 17.5781 19.5316 17.5597 19.4407 17.5428L19.4094 17.5382C19.3311 17.5244 19.2527 17.5122 19.1697 17.5007L19.078 17.4899C19.013 17.4823 18.9472 17.4754 18.8799 17.4692L18.7757 17.46C18.7067 17.4547 18.6362 17.4508 18.565 17.447L18.4678 17.4424C18.3644 17.4424 18.2587 17.4363 18.1498 17.4363H12.4244C12.3535 17.4363 12.2826 17.4404 12.2121 17.4485C11.7476 17.506 11.5071 17.7636 11.4288 18.2397L10.4285 24.4375C10.5961 23.9629 10.8734 23.7774 11.2447 23.7774H14.071C17.3688 23.7774 19.888 21.6598 20.463 17.848Z" fill="#ECC0A2"/>
</svg>
