<svg width="24" height="24" viewBox="0 0 24 24" fill="none" xmlns="http://www.w3.org/2000/svg">
<path d="M3.41039 4.638V13.5588C3.41039 18.4152 7.25639 22.3512 12 22.3512C16.7436 22.3512 20.5896 18.4152 20.5896 13.5588V4.6428L11.9484 1.7352L3.41039 4.638ZM11.946 0L22.2 3.4488V13.5588C22.2 19.3248 17.6328 24 12 24C6.36719 24 1.79999 19.3248 1.79999 13.5588V3.4488L11.946 0ZM17.2488 7.782C17.1705 7.71005 17.0784 7.65461 16.9782 7.61899C16.878 7.58337 16.7716 7.56831 16.6655 7.57469C16.5593 7.58108 16.4555 7.60878 16.3603 7.65615C16.265 7.70352 16.1803 7.76958 16.1112 7.8504L10.932 13.8132L7.58639 10.1112C7.51565 10.032 7.4297 9.96775 7.33364 9.9224C7.23759 9.87706 7.13339 9.85149 7.02726 9.84724C6.92112 9.84299 6.81521 9.86013 6.71583 9.89764C6.61645 9.93515 6.52564 9.99227 6.44879 10.0656C6.29145 10.216 6.19883 10.4217 6.19054 10.6392C6.18225 10.8567 6.25895 11.0689 6.40439 11.2308L10.3524 15.5988C10.4276 15.6833 10.52 15.7508 10.6235 15.7966C10.7269 15.8424 10.839 15.8655 10.9521 15.8644C11.0653 15.8632 11.1768 15.8379 11.2793 15.79C11.3818 15.7421 11.4729 15.6728 11.5464 15.5868L17.3148 8.946C17.4571 8.78142 17.5299 8.56789 17.5175 8.35063C17.5052 8.13337 17.4088 7.92944 17.2488 7.782Z" fill="#ECC0A2"/>
</svg>
